# xmcd
#
# Track frame offsets:
# 150
# 9974
# 15706
# 18952
# 27355
# 35777
# 44311
# 53767
# 62995
# 70729
# 79515
# 89075
# 99076
# 114523
# 125592
# 134211
# 145784
# 158154
# 169453
# 184745
# 197042
# 206731
# 217121
# 229802
# 242912
# 255197
# 264232
# 275061
# 282466
# 293339
#
# Disc length: 4012 seconds
#
# Revision: 0
# Processed by: cddbd v1.5.2PL0 Copyright (c) Steve Scherf et al.
# Submitted via: Audion 3.0.2 (http://www.panic.com/audion/)
#
DISCID=ba0faa1e
DTITLE=Assimil - Assimil_Serbe_CD1
DYEAR=1900
DGENRE=
TTITLE0=Introduction
TTITLE1=Lekcija 1
TTITLE2=Lekcija 2
TTITLE3=Lekcija 3
TTITLE4=Lekcija 4
TTITLE5=Lekcija 5
TTITLE6=Lekcija 6
TTITLE7=Lekcija 7
TTITLE8=Lekcija 8
TTITLE9=Lekcija 9
TTITLE10=Lekcija 10
TTITLE11=Lekcija 11
TTITLE12=Lekcija 12
TTITLE13=Lekcija 13
TTITLE14=Lekcija 14
TTITLE15=Lekcija 15
TTITLE16=Lekcija 16
TTITLE17=Lekcija 17
TTITLE18=Lekcija 18
TTITLE19=Lekcija 19
TTITLE20=Lekcija 20
TTITLE21=Lekcija 21
TTITLE22=Lekcija 22
TTITLE23=Lekcija 23
TTITLE24=Lekcija 24
TTITLE25=Lekcija 25
TTITLE26=Lekcija 26
TTITLE27=Lekcija 27
TTITLE28=Lekcija 28
TTITLE29=Lekcija 29
EXTD=
EXTT0=
EXTT1=
EXTT2=
EXTT3=
EXTT4=
EXTT5=
EXTT6=
EXTT7=
EXTT8=
EXTT9=
EXTT10=
EXTT11=
EXTT12=
EXTT13=
EXTT14=
EXTT15=
EXTT16=
EXTT17=
EXTT18=
EXTT19=
EXTT20=
EXTT21=
EXTT22=
EXTT23=
EXTT24=
EXTT25=
EXTT26=
EXTT27=
EXTT28=
EXTT29=
PLAYORDER=
